<svg width="302" height="78" viewBox="0 0 302 78" fill="none" xmlns="http://www.w3.org/2000/svg">
<rect width="302" height="78" rx="18" fill="#EB5BB1"/>
<path d="M11.4432 56V21.0909H24.5341C27.2159 21.0909 29.4659 21.5568 31.2841 22.4886C33.1136 23.4205 34.4943 24.7273 35.4261 26.4091C36.3693 28.0795 36.8409 30.0284 36.8409 32.2557C36.8409 34.4943 36.3636 36.4375 35.4091 38.0852C34.4659 39.7216 33.0739 40.9886 31.233 41.8864C29.392 42.7727 27.1307 43.2159 24.4489 43.2159H15.125V37.9659H23.5966C25.1648 37.9659 26.4489 37.75 27.4489 37.3182C28.4489 36.875 29.1875 36.233 29.6648 35.392C30.1534 34.5398 30.3977 33.4943 30.3977 32.2557C30.3977 31.017 30.1534 29.9602 29.6648 29.0852C29.1761 28.1989 28.4318 27.5284 27.4318 27.0739C26.4318 26.608 25.142 26.375 23.5625 26.375H17.767V56H11.4432ZM29.4773 40.1818L38.1193 56H31.0625L22.5739 40.1818H29.4773ZM53.4347 56.5114C50.8778 56.5114 48.6619 55.9489 46.7869 54.8239C44.9119 53.6989 43.4574 52.125 42.4233 50.1023C41.4006 48.0795 40.8892 45.7159 40.8892 43.0114C40.8892 40.3068 41.4006 37.9375 42.4233 35.9034C43.4574 33.8693 44.9119 32.2898 46.7869 31.1648C48.6619 30.0398 50.8778 29.4773 53.4347 29.4773C55.9915 29.4773 58.2074 30.0398 60.0824 31.1648C61.9574 32.2898 63.4063 33.8693 64.429 35.9034C65.4631 37.9375 65.9801 40.3068 65.9801 43.0114C65.9801 45.7159 65.4631 48.0795 64.429 50.1023C63.4063 52.125 61.9574 53.6989 60.0824 54.8239C58.2074 55.9489 55.9915 56.5114 53.4347 56.5114ZM53.4688 51.5682C54.8551 51.5682 56.0142 51.1875 56.946 50.4261C57.8778 49.6534 58.571 48.6193 59.0256 47.3239C59.4915 46.0284 59.7244 44.5852 59.7244 42.9943C59.7244 41.392 59.4915 39.9432 59.0256 38.6477C58.571 37.3409 57.8778 36.3011 56.946 35.5284C56.0142 34.7557 54.8551 34.3693 53.4688 34.3693C52.0483 34.3693 50.8665 34.7557 49.9233 35.5284C48.9915 36.3011 48.2926 37.3409 47.8267 38.6477C47.3722 39.9432 47.1449 41.392 47.1449 42.9943C47.1449 44.5852 47.3722 46.0284 47.8267 47.3239C48.2926 48.6193 48.9915 49.6534 49.9233 50.4261C50.8665 51.1875 52.0483 51.5682 53.4688 51.5682ZM91.9105 36.7386L86.2855 37.3523C86.1264 36.7841 85.848 36.25 85.4503 35.75C85.0639 35.25 84.5412 34.8466 83.8821 34.5398C83.223 34.233 82.4162 34.0795 81.4616 34.0795C80.1776 34.0795 79.098 34.358 78.223 34.9148C77.3594 35.4716 76.9332 36.1932 76.9446 37.0795C76.9332 37.8409 77.2116 38.4602 77.7798 38.9375C78.3594 39.4148 79.3139 39.8068 80.6435 40.1136L85.1094 41.0682C87.5866 41.6023 89.4276 42.4489 90.6321 43.608C91.848 44.767 92.4616 46.2841 92.473 48.1591C92.4616 49.8068 91.9787 51.2614 91.0241 52.5227C90.081 53.7727 88.7685 54.75 87.0866 55.4545C85.4048 56.1591 83.473 56.5114 81.2912 56.5114C78.0866 56.5114 75.5071 55.8409 73.5526 54.5C71.598 53.1477 70.4332 51.267 70.0582 48.858L76.0753 48.2784C76.348 49.4602 76.9276 50.3523 77.8139 50.9545C78.7003 51.5568 79.8537 51.858 81.2741 51.858C82.7401 51.858 83.9162 51.5568 84.8026 50.9545C85.7003 50.3523 86.1491 49.608 86.1491 48.7216C86.1491 47.9716 85.8594 47.3523 85.2798 46.8636C84.7116 46.375 83.8253 46 82.6207 45.7386L78.1548 44.8011C75.6435 44.2784 73.7855 43.3977 72.581 42.1591C71.3764 40.9091 70.7798 39.3295 70.7912 37.4205C70.7798 35.8068 71.2173 34.4091 72.1037 33.2273C73.0014 32.0341 74.2457 31.1136 75.8366 30.4659C77.4389 29.8068 79.2855 29.4773 81.3764 29.4773C84.4446 29.4773 86.8594 30.1307 88.6207 31.4375C90.3935 32.7443 91.4901 34.5114 91.9105 36.7386ZM109.152 56.5114C106.527 56.5114 104.26 55.9659 102.351 54.875C100.453 53.7727 98.9929 52.2159 97.9702 50.2045C96.9474 48.1818 96.4361 45.8011 96.4361 43.0625C96.4361 40.3693 96.9474 38.0057 97.9702 35.9716C99.0043 33.9261 100.447 32.3352 102.3 31.1989C104.152 30.0511 106.328 29.4773 108.828 29.4773C110.442 29.4773 111.964 29.7386 113.396 30.2614C114.839 30.7727 116.112 31.5682 117.214 32.6477C118.328 33.7273 119.203 35.1023 119.839 36.7727C120.476 38.4318 120.794 40.4091 120.794 42.7045V44.5966H99.3338V40.4375H114.879C114.868 39.2557 114.612 38.2045 114.112 37.2841C113.612 36.3523 112.913 35.6193 112.016 35.0852C111.129 34.5511 110.095 34.2841 108.913 34.2841C107.652 34.2841 106.544 34.5909 105.589 35.2045C104.635 35.8068 103.891 36.6023 103.357 37.5909C102.834 38.5682 102.567 39.642 102.555 40.8125V44.4432C102.555 45.9659 102.834 47.2727 103.391 48.3636C103.947 49.4432 104.726 50.2727 105.726 50.8523C106.726 51.4205 107.896 51.7045 109.237 51.7045C110.135 51.7045 110.947 51.5795 111.675 51.3295C112.402 51.0682 113.033 50.6875 113.567 50.1875C114.101 49.6875 114.504 49.0682 114.777 48.3295L120.538 48.9773C120.175 50.5 119.482 51.8295 118.459 52.9659C117.447 54.0909 116.152 54.9659 114.572 55.5909C112.993 56.2045 111.186 56.5114 109.152 56.5114ZM146.707 36.7386L141.082 37.3523C140.923 36.7841 140.645 36.25 140.247 35.75C139.861 35.25 139.338 34.8466 138.679 34.5398C138.02 34.233 137.213 34.0795 136.259 34.0795C134.974 34.0795 133.895 34.358 133.02 34.9148C132.156 35.4716 131.73 36.1932 131.741 37.0795C131.73 37.8409 132.009 38.4602 132.577 38.9375C133.156 39.4148 134.111 39.8068 135.44 40.1136L139.906 41.0682C142.384 41.6023 144.224 42.4489 145.429 43.608C146.645 44.767 147.259 46.2841 147.27 48.1591C147.259 49.8068 146.776 51.2614 145.821 52.5227C144.878 53.7727 143.565 54.75 141.884 55.4545C140.202 56.1591 138.27 56.5114 136.088 56.5114C132.884 56.5114 130.304 55.8409 128.349 54.5C126.395 53.1477 125.23 51.267 124.855 48.858L130.872 48.2784C131.145 49.4602 131.724 50.3523 132.611 50.9545C133.497 51.5568 134.651 51.858 136.071 51.858C137.537 51.858 138.713 51.5568 139.599 50.9545C140.497 50.3523 140.946 49.608 140.946 48.7216C140.946 47.9716 140.656 47.3523 140.077 46.8636C139.509 46.375 138.622 46 137.418 45.7386L132.952 44.8011C130.44 44.2784 128.582 43.3977 127.378 42.1591C126.173 40.9091 125.577 39.3295 125.588 37.4205C125.577 35.8068 126.014 34.4091 126.901 33.2273C127.798 32.0341 129.043 31.1136 130.634 30.4659C132.236 29.8068 134.082 29.4773 136.173 29.4773C139.241 29.4773 141.656 30.1307 143.418 31.4375C145.19 32.7443 146.287 34.5114 146.707 36.7386ZM152.631 56V21.0909H158.955V37.1307H159.381L173 21.0909H180.722L167.222 36.7557L180.841 56H173.239L162.824 41.0341L158.955 45.6023V56H152.631ZM192.376 56.5284C190.717 56.5284 189.223 56.233 187.893 55.642C186.575 55.0398 185.53 54.1534 184.757 52.983C183.996 51.8125 183.615 50.3693 183.615 48.6534C183.615 47.1761 183.888 45.9545 184.433 44.9886C184.979 44.0227 185.723 43.25 186.666 42.6705C187.609 42.0909 188.672 41.6534 189.854 41.358C191.047 41.0511 192.28 40.8295 193.553 40.6932C195.087 40.5341 196.331 40.392 197.286 40.267C198.24 40.1307 198.933 39.9261 199.365 39.6534C199.808 39.3693 200.03 38.9318 200.03 38.3409V38.2386C200.03 36.9545 199.649 35.9602 198.888 35.2557C198.126 34.5511 197.03 34.1989 195.598 34.1989C194.087 34.1989 192.888 34.5284 192.001 35.1875C191.126 35.8466 190.536 36.625 190.229 37.5227L184.467 36.7045C184.922 35.1136 185.672 33.7841 186.717 32.7159C187.763 31.6364 189.041 30.8295 190.553 30.2955C192.064 29.75 193.734 29.4773 195.564 29.4773C196.825 29.4773 198.081 29.625 199.331 29.9205C200.581 30.2159 201.723 30.7045 202.757 31.3864C203.791 32.0568 204.621 32.9716 205.246 34.1307C205.882 35.2898 206.2 36.7386 206.2 38.4773V56H200.268V52.4034H200.064C199.689 53.1307 199.161 53.8125 198.479 54.4489C197.808 55.0739 196.962 55.5795 195.939 55.9659C194.928 56.3409 193.74 56.5284 192.376 56.5284ZM193.979 51.9943C195.217 51.9943 196.291 51.75 197.2 51.2614C198.109 50.7614 198.808 50.1023 199.297 49.2841C199.797 48.4659 200.047 47.5739 200.047 46.608V43.5227C199.854 43.6818 199.524 43.8295 199.058 43.9659C198.604 44.1023 198.092 44.2216 197.524 44.3239C196.956 44.4261 196.393 44.517 195.837 44.5966C195.28 44.6761 194.797 44.7443 194.388 44.8011C193.467 44.9261 192.643 45.1307 191.916 45.4148C191.189 45.6989 190.615 46.0966 190.195 46.608C189.774 47.108 189.564 47.7557 189.564 48.5511C189.564 49.6875 189.979 50.5455 190.808 51.125C191.638 51.7045 192.695 51.9943 193.979 51.9943ZM212.064 56V52.0795L225.564 35.1534V34.9318H212.507V29.8182H233.115V34.0284L220.263 50.6648V50.8864H233.558V56H212.064ZM246.892 56.5284C245.233 56.5284 243.739 56.233 242.409 55.642C241.091 55.0398 240.045 54.1534 239.273 52.983C238.511 51.8125 238.131 50.3693 238.131 48.6534C238.131 47.1761 238.403 45.9545 238.949 44.9886C239.494 44.0227 240.239 43.25 241.182 42.6705C242.125 42.0909 243.188 41.6534 244.369 41.358C245.563 41.0511 246.795 40.8295 248.068 40.6932C249.602 40.5341 250.847 40.392 251.801 40.267C252.756 40.1307 253.449 39.9261 253.881 39.6534C254.324 39.3693 254.545 38.9318 254.545 38.3409V38.2386C254.545 36.9545 254.165 35.9602 253.403 35.2557C252.642 34.5511 251.545 34.1989 250.114 34.1989C248.602 34.1989 247.403 34.5284 246.517 35.1875C245.642 35.8466 245.051 36.625 244.744 37.5227L238.983 36.7045C239.438 35.1136 240.188 33.7841 241.233 32.7159C242.278 31.6364 243.557 30.8295 245.068 30.2955C246.58 29.75 248.25 29.4773 250.08 29.4773C251.341 29.4773 252.597 29.625 253.847 29.9205C255.097 30.2159 256.239 30.7045 257.273 31.3864C258.307 32.0568 259.136 32.9716 259.761 34.1307C260.398 35.2898 260.716 36.7386 260.716 38.4773V56H254.784V52.4034H254.58C254.205 53.1307 253.676 53.8125 252.994 54.4489C252.324 55.0739 251.477 55.5795 250.455 55.9659C249.443 56.3409 248.256 56.5284 246.892 56.5284ZM248.494 51.9943C249.733 51.9943 250.807 51.75 251.716 51.2614C252.625 50.7614 253.324 50.1023 253.812 49.2841C254.312 48.4659 254.562 47.5739 254.562 46.608V43.5227C254.369 43.6818 254.04 43.8295 253.574 43.9659C253.119 44.1023 252.608 44.2216 252.04 44.3239C251.472 44.4261 250.909 44.517 250.352 44.5966C249.795 44.6761 249.313 44.7443 248.903 44.8011C247.983 44.9261 247.159 45.1307 246.432 45.4148C245.705 45.6989 245.131 46.0966 244.71 46.608C244.29 47.108 244.08 47.7557 244.08 48.5511C244.08 49.6875 244.494 50.5455 245.324 51.125C246.153 51.7045 247.21 51.9943 248.494 51.9943ZM273.091 40.6591V56H266.92V29.8182H272.818V34.267H273.125C273.727 32.8011 274.688 31.6364 276.006 30.7727C277.335 29.9091 278.977 29.4773 280.932 29.4773C282.739 29.4773 284.313 29.8636 285.653 30.6364C287.006 31.4091 288.051 32.5284 288.79 33.9943C289.54 35.4602 289.909 37.2386 289.898 39.3295V56H283.727V40.2841C283.727 38.5341 283.273 37.1648 282.364 36.1761C281.466 35.1875 280.222 34.6932 278.631 34.6932C277.551 34.6932 276.591 34.9318 275.75 35.4091C274.92 35.875 274.267 36.5511 273.79 37.4375C273.324 38.3239 273.091 39.3977 273.091 40.6591Z" fill="white"/>
</svg>
